<svg width="19" height="18" viewBox="0 0 19 18" fill="none" xmlns="http://www.w3.org/2000/svg">
<path fill-rule="evenodd" clip-rule="evenodd" d="M17.7161 0.158593C17.8177 0.26017 17.8747 0.39792 17.8747 0.541551C17.8747 0.685182 17.8177 0.822932 17.7161 0.924509L12.2805 6.36013C12.7176 6.36393 13.171 6.35797 13.6531 6.35147C14.0734 6.34605 14.5149 6.34063 14.9856 6.34063C16.2769 6.34063 17.1728 6.84763 17.7308 7.65472C18.2643 8.42659 18.4485 9.41188 18.4837 10.3197C18.52 11.2378 18.4062 12.1451 18.2865 12.8141C18.224 13.1659 18.1481 13.5151 18.059 13.8611L18.0552 13.8731V16.7916C18.0552 16.9352 17.9982 17.073 17.8966 17.1746C17.795 17.2761 17.6572 17.3332 17.5136 17.3332H15.1665C15.0229 17.3332 14.8851 17.2761 14.7835 17.1746C14.6819 17.073 14.6248 16.9352 14.6248 16.7916C14.6248 16.3328 14.6942 15.9807 14.8253 15.6985C14.9596 15.4081 15.1394 15.237 15.2711 15.1227L15.3501 15.0533C14.4196 14.5176 13.873 14.0691 13.4424 13.4971C13.2127 13.1927 13.0264 12.8666 12.8336 12.5053C12.7579 12.3627 12.683 12.2197 12.6088 12.0763C12.5362 11.9366 12.4603 11.7903 12.3775 11.6333L8.66652 12.8628V15.8566C8.66652 16.2022 8.61181 16.5608 8.38431 16.8479C8.14922 17.1447 7.81393 17.2596 7.50139 17.311C7.19264 17.3614 6.81672 17.363 6.40235 17.3565L6.14452 17.3516L5.98202 17.3484C5.61303 17.3391 5.24395 17.3341 4.87485 17.3332C4.65277 17.3332 4.41768 17.2373 4.27468 17.0109C4.15606 16.823 4.15064 16.6209 4.16147 16.4926C4.18368 16.2271 4.30231 15.9428 4.44097 15.7061C4.59377 15.4413 4.79028 15.2043 5.02218 15.0051C5.24589 14.8183 5.5541 14.6384 5.91756 14.626V14.6238C5.92108 14.5249 5.91782 14.4259 5.90781 14.3275C5.8904 14.1563 5.86946 13.9854 5.84497 13.8151C5.78972 13.4023 5.71822 12.8721 5.69493 12.2995C5.19985 12.0872 4.80497 11.8499 4.50868 11.5504C4.12952 11.1658 3.9551 10.7206 3.88685 10.2163C3.82185 9.73959 3.84947 9.18005 3.88577 8.55443L3.8966 8.37134C3.92206 7.92934 3.95077 7.43426 3.96431 6.8693C3.37552 7.01772 2.72714 7.04155 2.16652 7.04155C1.07235 7.04155 0.541515 6.11422 0.304807 5.47776C0.195475 5.176 0.113179 4.86513 0.0588904 4.5488C0.036036 4.41842 0.0179681 4.28725 0.00472349 4.15555L0.00255698 4.12955L0.00147346 4.12197V4.11818C-0.00735764 3.99867 0.0236881 3.87961 0.0897502 3.77964C0.155812 3.67966 0.253161 3.60441 0.366557 3.56568L0.612474 3.48118C1.15375 3.29581 1.6947 3.10948 2.23531 2.92218C2.32577 2.64322 2.49314 2.37888 2.66972 2.1633C2.9476 1.82368 3.3311 1.49976 3.76497 1.29663C4.19831 1.09459 4.73564 0.98951 5.26539 1.1948C5.80218 1.4028 6.20627 1.88055 6.46627 2.58038C6.88335 3.70434 7.34918 4.47459 7.85889 5.01084C8.36264 5.54059 8.92922 5.86234 9.58681 6.06005C9.98842 6.17691 10.4004 6.25473 10.8169 6.29243L16.9502 0.158593C17.0518 0.0570459 17.1896 0 17.3332 0C17.4768 0 17.6146 0.0570459 17.7161 0.158593ZM9.27427 7.09734C9.4671 7.15476 9.6639 7.20351 9.86468 7.24359L8.7131 8.39572H4.97993C5.01243 7.83076 5.05143 7.15368 5.05522 6.34984C5.18306 6.24512 5.29807 6.12198 5.40027 5.98043C5.65052 5.62997 5.77781 5.19988 5.77781 4.69884H4.69447C4.69447 5.01084 4.6181 5.2118 4.51843 5.35101C4.4166 5.49401 4.25952 5.61372 4.03256 5.70959C3.55697 5.91001 2.88964 5.95822 2.16652 5.95822C1.8166 5.95822 1.53439 5.67439 1.31989 5.09968C1.24238 4.88668 1.18259 4.66764 1.14114 4.4448L1.55443 4.30288C1.99995 4.15052 2.44485 3.99633 2.8891 3.8403C2.99466 3.8029 3.08602 3.7337 3.15063 3.64222C3.21523 3.55075 3.2499 3.4415 3.24985 3.32951C3.24985 3.28401 3.30131 3.10201 3.50822 2.84851C3.69889 2.61559 3.95835 2.40218 4.22431 2.27759C4.49027 2.15301 4.7091 2.14055 4.87431 2.20447C5.03085 2.26513 5.25889 2.44172 5.45064 2.95738C5.90131 4.17072 6.43322 5.08288 7.07402 5.75672C7.72022 6.43651 8.45527 6.85088 9.27427 7.0968M7.95477 11.9572L8.39568 11.8109V9.47905H4.93118C4.92902 9.70655 4.9366 9.89993 4.96043 10.0711C5.00485 10.3988 5.10127 10.6084 5.28002 10.7899C5.47772 10.9903 5.81464 11.1951 6.42022 11.4236C6.52316 11.4625 6.61183 11.5317 6.67444 11.6222C6.73704 11.7127 6.77061 11.8201 6.77068 11.9301C6.77068 12.5693 6.84218 13.0936 6.9061 13.5665C6.93806 13.7978 6.96785 14.0171 6.98681 14.2316C7.01118 14.509 7.02689 14.8654 6.89039 15.1617C6.80962 15.3414 6.67202 15.4897 6.49876 15.5836C6.33161 15.6691 6.1459 15.7119 5.95818 15.7082C5.93327 15.7082 5.84985 15.725 5.71768 15.8361C5.58161 15.9548 5.46628 16.0954 5.37643 16.2521L5.37589 16.2537C5.60845 16.2569 5.82331 16.2609 6.02047 16.2656L6.41968 16.2732C6.84327 16.2802 7.1271 16.2743 7.32643 16.2418C7.38846 16.2336 7.44911 16.2172 7.50681 16.193C7.51514 16.189 7.52311 16.1843 7.53064 16.1789L7.53172 16.1784L7.53552 16.1751C7.5366 16.1735 7.58318 16.1139 7.58318 15.8566V12.4718C7.58323 12.3579 7.61916 12.2469 7.68586 12.1547C7.75257 12.0624 7.84666 11.9929 7.95477 11.9572ZM11.2291 7.41151L9.47902 9.16163V11.4529L12.4685 10.4616C12.5889 10.4218 12.7194 10.4254 12.8374 10.4719C12.9554 10.5185 13.0534 10.6049 13.1141 10.7162C13.2913 11.0401 13.4456 11.337 13.5811 11.597C13.6562 11.7425 13.7257 11.8754 13.7896 11.9956C13.9754 12.3445 14.1308 12.6104 14.3074 12.8455C14.6487 13.2978 15.1096 13.6878 16.1502 14.2603C16.2147 14.2959 16.2713 14.3443 16.3164 14.4025C16.3616 14.4607 16.3944 14.5276 16.4129 14.5989C16.4941 14.9114 16.5088 15.2131 16.3728 15.4916C16.2694 15.7028 16.0873 15.8528 16.0066 15.9195L15.9991 15.9254L15.9806 15.9411C15.8994 16.0116 15.8496 16.0641 15.8073 16.154C15.7932 16.1851 15.7813 16.2172 15.7716 16.2499H16.9719V13.9186L15.2163 10.0998L16.2006 9.64751L17.3088 12.0579C17.3781 11.5379 17.4242 10.9475 17.4009 10.3625C17.3689 9.54026 17.2032 8.79655 16.8397 8.27113C16.5006 7.78093 15.9519 7.42397 14.9861 7.42397C14.5496 7.42397 14.1195 7.42938 13.7008 7.4348C13.067 7.44293 12.4603 7.45051 11.9035 7.43805C11.6753 7.433 11.4505 7.42397 11.2291 7.41097" fill="black"/>
</svg>
