<svg width="49" height="38" viewBox="0 0 49 38" fill="none" xmlns="http://www.w3.org/2000/svg">
<g opacity="0.2">
<path fill-rule="evenodd" clip-rule="evenodd" d="M23.4128 36.749C22.8907 37.1843 22.288 37.5124 21.639 37.7147C20.9901 37.917 20.3076 37.9895 19.6307 37.928C18.9537 37.8665 18.2955 37.6722 17.6936 37.3562C17.0918 37.0403 16.558 36.6089 16.1229 36.0866L4.6241 22.2866C4.16975 21.7672 3.82385 21.1623 3.60676 20.5073C3.38967 19.8523 3.30577 19.1605 3.35999 18.4725C3.41421 17.7846 3.60546 17.1145 3.92249 16.5016C4.23952 15.8887 4.67593 15.3454 5.20603 14.9036C5.73614 14.4619 6.34924 14.1306 7.00927 13.9293C7.66929 13.728 8.36291 13.6607 9.04932 13.7314C9.73574 13.8021 10.4011 14.0094 11.0062 14.3411C11.6113 14.6727 12.144 15.122 12.5729 15.6626L24.0752 29.4626C24.9532 30.5168 25.3767 31.8766 25.2524 33.2429C25.1282 34.6093 24.4665 35.8704 23.4128 36.749Z" fill="#1E1E1E"/>
<path fill-rule="evenodd" clip-rule="evenodd" d="M23.4128 1.2002C24.4665 2.07882 25.1282 3.33992 25.2524 4.70627C25.3767 6.07261 24.9532 7.43236 24.0752 8.4866L12.5729 22.2866C11.6834 23.3034 10.4315 23.932 9.08464 24.0382C7.73783 24.1443 6.40291 23.7196 5.36505 22.8547C4.32719 21.9899 3.6687 20.7534 3.53025 19.4095C3.3918 18.0657 3.78437 16.7209 4.62409 15.6626L16.1229 1.8626C16.558 1.34034 17.0918 0.908916 17.6936 0.59297C18.2955 0.277024 18.9537 0.0827455 19.6306 0.0212329C20.3076 -0.0402798 20.9901 0.0321794 21.639 0.234469C22.288 0.436759 22.8907 0.764917 23.4128 1.2002Z" fill="#1E1E1E"/>
<path fill-rule="evenodd" clip-rule="evenodd" d="M10.3235 18.9746C10.3235 17.6021 10.8687 16.2858 11.8392 15.3153C12.8097 14.3448 14.126 13.7996 15.4985 13.7996H43.0985C44.471 13.7996 45.7873 14.3448 46.7578 15.3153C47.7283 16.2858 48.2735 17.6021 48.2735 18.9746C48.2735 20.3471 47.7283 21.6634 46.7578 22.6339C45.7873 23.6044 44.471 24.1496 43.0985 24.1496H15.4985C14.126 24.1496 12.8097 23.6044 11.8392 22.6339C10.8687 21.6634 10.3235 20.3471 10.3235 18.9746Z" fill="#1E1E1E"/>
</g>
<path fill-rule="evenodd" clip-rule="evenodd" d="M14.3014 32.3744C13.9499 32.6671 13.4967 32.8082 13.0412 32.7668C12.5858 32.7254 12.1654 32.5048 11.8726 32.1536L0.373701 18.3536C0.0937936 18.0008 -0.0370628 17.5526 0.00908728 17.1046C0.0552374 16.6567 0.274734 16.2445 0.620687 15.9562C0.966639 15.6679 1.41161 15.5264 1.86055 15.5617C2.30949 15.5971 2.72679 15.8067 3.0233 16.1456L14.5222 29.9456C14.8148 30.297 14.956 30.7503 14.9146 31.2057C14.8732 31.6612 14.6526 32.0815 14.3014 32.3744Z" fill="#1E1E1E"/>
<path fill-rule="evenodd" clip-rule="evenodd" d="M14.3014 2.1248C14.6526 2.41768 14.8732 2.83804 14.9146 3.29349C14.956 3.74894 14.8148 4.20219 14.5222 4.5536L3.0233 18.3536C2.72679 18.6925 2.30949 18.9021 1.86055 18.9375C1.41161 18.9728 0.966639 18.8313 0.620687 18.543C0.274734 18.2547 0.0552374 17.8425 0.00908728 17.3946C-0.0370628 16.9466 0.0937936 16.4984 0.373701 16.1456L11.8726 2.3456C12.1654 1.99436 12.5858 1.77379 13.0412 1.73239C13.4967 1.69098 13.9499 1.83213 14.3014 2.1248Z" fill="#1E1E1E"/>
<path fill-rule="evenodd" clip-rule="evenodd" d="M1.6985 17.2496C1.6985 16.7921 1.88024 16.3533 2.20374 16.0298C2.52724 15.7063 2.966 15.5246 3.4235 15.5246H36.1985C36.656 15.5246 37.0948 15.7063 37.4183 16.0298C37.7418 16.3533 37.9235 16.7921 37.9235 17.2496C37.9235 17.7071 37.7418 18.1459 37.4183 18.4694C37.0948 18.7929 36.656 18.9746 36.1985 18.9746H3.4235C2.966 18.9746 2.52724 18.7929 2.20374 18.4694C1.88024 18.1459 1.6985 17.7071 1.6985 17.2496Z" fill="#1E1E1E"/>
</svg>
