<svg width="38" height="28" viewBox="0 0 38 28" fill="none" xmlns="http://www.w3.org/2000/svg">
<path fill-rule="evenodd" clip-rule="evenodd" d="M9.625 7.875C9.625 6.71468 10.0859 5.60188 10.9064 4.78141C11.7269 3.96094 12.8397 3.5 14 3.5C15.1603 3.5 16.2731 3.96094 17.0936 4.78141C17.9141 5.60188 18.375 6.71468 18.375 7.875C18.375 9.03532 17.9141 10.1481 17.0936 10.9686C16.2731 11.7891 15.1603 12.25 14 12.25C12.8397 12.25 11.7269 11.7891 10.9064 10.9686C10.0859 10.1481 9.625 9.03532 9.625 7.875ZM18.375 11.375C18.375 10.4467 18.7437 9.5565 19.4001 8.90013C20.0565 8.24375 20.9467 7.875 21.875 7.875C22.8033 7.875 23.6935 8.24375 24.3499 8.90013C25.0063 9.5565 25.375 10.4467 25.375 11.375C25.375 12.3033 25.0063 13.1935 24.3499 13.8499C23.6935 14.5063 22.8033 14.875 21.875 14.875C20.9467 14.875 20.0565 14.5063 19.4001 13.8499C18.7437 13.1935 18.375 12.3033 18.375 11.375ZM2.625 11.375C2.625 10.4467 2.99375 9.5565 3.65013 8.90013C4.3065 8.24375 5.19674 7.875 6.125 7.875C7.05326 7.875 7.9435 8.24375 8.59987 8.90013C9.25625 9.5565 9.625 10.4467 9.625 11.375C9.625 12.3033 9.25625 13.1935 8.59987 13.8499C7.9435 14.5063 7.05326 14.875 6.125 14.875C5.19674 14.875 4.3065 14.5063 3.65013 13.8499C2.99375 13.1935 2.625 12.3033 2.625 11.375ZM7.36167 17.6377C8.07353 16.5225 9.05488 15.6047 10.2151 14.9689C11.3753 14.3331 12.677 13.9999 14 14C15.1081 13.999 16.204 14.232 17.2158 14.6839C18.2276 15.1357 19.1326 15.7961 19.8715 16.6219C20.6104 17.4477 21.1666 18.4203 21.5036 19.4759C21.8406 20.5316 21.9509 21.6465 21.8272 22.7477C21.812 22.8845 21.7649 23.0158 21.6894 23.1309C21.614 23.2461 21.5125 23.3418 21.3932 23.4103C19.1432 24.7011 16.5939 25.3785 14 25.375C11.4061 25.3785 8.85677 24.7011 6.60683 23.4103C6.48747 23.3418 6.38596 23.2461 6.31055 23.1309C6.23514 23.0158 6.18796 22.8845 6.17283 22.7477C5.97812 20.9588 6.39733 19.1569 7.36167 17.6377Z" fill="#F8D3AF"/>
<path d="M5.929 16.6296L5.887 16.6938C4.76614 18.4576 4.24596 20.5367 4.40417 22.6205C3.70321 22.5142 3.01379 22.3424 2.345 22.1071L2.21083 22.0605C2.09089 22.0184 1.98583 21.9422 1.90853 21.8413C1.83124 21.7404 1.78506 21.6191 1.77567 21.4923L1.764 21.3511C1.75467 21.2337 1.75 21.1166 1.75 21C1.75007 19.8736 2.18454 18.7907 2.96297 17.9766C3.74139 17.1626 4.80379 16.6801 5.929 16.6296ZM23.597 22.6205C23.7566 20.5104 23.2206 18.4062 22.071 16.6296C22.658 16.656 23.2337 16.8002 23.7637 17.0539C24.2938 17.3076 24.7673 17.6654 25.156 18.1061C25.5447 18.5467 25.8407 19.0612 26.0262 19.6187C26.2118 20.1762 26.2831 20.7654 26.236 21.3511L26.2243 21.4923C26.2147 21.6189 26.1684 21.7399 26.0912 21.8406C26.0139 21.9413 25.9089 22.0173 25.7892 22.0593L25.655 22.106C24.9931 22.3409 24.3071 22.5124 23.597 22.6205Z" fill="#F8D3AF"/>
<g clip-path="url(#clip0_112_35)">
<path d="M33 9.375C35.7613 9.375 38 7.41625 38 5C38 2.58375 35.7613 0.625 33 0.625C30.2387 0.625 28 2.58375 28 5C28 6.1 28.4644 7.10625 29.2313 7.875C29.1706 8.51 28.9706 9.20625 28.7494 9.72875C28.7 9.845 28.7956 9.975 28.92 9.955C30.33 9.72375 31.1681 9.36875 31.5325 9.18375C32.0111 9.31185 32.5045 9.37616 33 9.375Z" fill="#F8D3AF"/>
</g>
<defs>
<clipPath id="clip0_112_35">
<rect width="10" height="10" fill="white" transform="translate(28)"/>
</clipPath>
</defs>
</svg>
