<svg width="22" height="22" viewBox="0 0 22 22" fill="none" xmlns="http://www.w3.org/2000/svg">
<path d="M20.0883 10.6919C19.2977 7.11777 18.1251 4.83785 16.2456 4.28226C15.8816 4.17608 15.5042 4.12311 15.125 4.125C13.9696 4.125 13.0578 4.8125 11 4.8125C8.94223 4.8125 8.02871 4.125 6.875 4.125C6.48001 4.1229 6.08664 4.17583 5.70625 4.28226C3.82422 4.83785 2.66149 7.11992 1.86184 10.6919C1.04543 14.3404 1.19324 17.2232 2.7891 17.7766C3.90629 18.1633 4.90531 17.3637 5.85149 16.1868C6.9257 14.8461 8.24871 14.4336 11 14.4336C13.7513 14.4336 15.0227 14.8461 16.0987 16.1868C17.044 17.3645 18.08 18.1543 19.1675 17.7835C20.9301 17.1815 20.9052 14.3834 20.0883 10.6919Z" stroke="black" stroke-miterlimit="10"/>
<path d="M12.5469 10.4844C13.0215 10.4844 13.4062 10.0996 13.4062 9.625C13.4062 9.15038 13.0215 8.76562 12.5469 8.76562C12.0723 8.76562 11.6875 9.15038 11.6875 9.625C11.6875 10.0996 12.0723 10.4844 12.5469 10.4844Z" fill="black"/>
<path d="M14.4375 12.375C14.2674 12.375 14.1012 12.3245 13.9598 12.23C13.8185 12.1355 13.7083 12.0012 13.6433 11.844C13.5784 11.6868 13.5615 11.5139 13.5948 11.3472C13.6281 11.1804 13.7102 11.0273 13.8306 10.9072C13.951 10.7871 14.1043 10.7054 14.2712 10.6725C14.438 10.6396 14.6109 10.6569 14.7679 10.7223C14.9249 10.7877 15.0589 10.8981 15.1531 11.0397C15.2473 11.1814 15.2973 11.3477 15.2969 11.5178C15.2963 11.7453 15.2055 11.9634 15.0444 12.1241C14.8833 12.2848 14.665 12.375 14.4375 12.375Z" fill="black"/>
<path d="M14.4375 8.59375C14.9121 8.59375 15.2969 8.20899 15.2969 7.73438C15.2969 7.25976 14.9121 6.875 14.4375 6.875C13.9629 6.875 13.5781 7.25976 13.5781 7.73438C13.5781 8.20899 13.9629 8.59375 14.4375 8.59375Z" fill="black"/>
<path d="M16.3281 10.4844C16.8027 10.4844 17.1875 10.0996 17.1875 9.625C17.1875 9.15038 16.8027 8.76562 16.3281 8.76562C15.8535 8.76562 15.4688 9.15038 15.4688 9.625C15.4688 10.0996 15.8535 10.4844 16.3281 10.4844Z" fill="black"/>
<path d="M6.875 7.5625V11.6875M8.9375 9.625H4.8125" stroke="black" stroke-linecap="round" stroke-linejoin="round"/>
</svg>
